<svg width="108" height="24" viewBox="0 0 108 24" fill="none" xmlns="http://www.w3.org/2000/svg">
<path d="M7 12.8203C7.46875 12.8203 7.82031 13.2109 7.82031 13.6797C7.82031 14.1094 7.46875 14.5 7 14.5C6.53125 14.5 6.17969 14.1094 6.17969 13.6797C6.17969 13.2109 6.53125 12.8203 7 12.8203ZM7 16.1797C7.46875 16.1797 7.82031 16.5312 7.82031 17C7.82031 17.4688 7.46875 17.8203 7 17.8203C6.53125 17.8203 6.17969 17.4688 6.17969 17C6.17969 16.5312 6.53125 16.1797 7 16.1797ZM7 9.5C7.46875 9.5 7.82031 9.89062 7.82031 10.3203C7.82031 10.7891 7.46875 11.1797 7 11.1797C6.53125 11.1797 6.17969 10.7891 6.17969 10.3203C6.17969 9.89062 6.53125 9.5 7 9.5ZM4.5 9.92969C4.73438 9.92969 4.92969 10.0859 4.92969 10.3203C4.92969 10.5547 4.73438 10.75 4.5 10.75C4.26562 10.75 4.07031 10.5547 4.07031 10.3203C4.07031 10.0859 4.26562 9.92969 4.5 9.92969ZM7 6.17969C7.46875 6.17969 7.82031 6.53125 7.82031 7C7.82031 7.46875 7.46875 7.82031 7 7.82031C6.53125 7.82031 6.17969 7.46875 6.17969 7C6.17969 6.53125 6.53125 6.17969 7 6.17969ZM19.5 10.75C19.2656 10.75 19.0703 10.5547 19.0703 10.3203C19.0703 10.0859 19.2656 9.92969 19.5 9.92969C19.7344 9.92969 19.9297 10.0859 19.9297 10.3203C19.9297 10.5547 19.7344 10.75 19.5 10.75ZM13.6797 7.82031C13.2109 7.82031 12.8203 7.46875 12.8203 7C12.8203 6.53125 13.2109 6.17969 13.6797 6.17969C14.1094 6.17969 14.5 6.53125 14.5 7C14.5 7.46875 14.1094 7.82031 13.6797 7.82031ZM13.6797 4.92969C13.4453 4.92969 13.25 4.73438 13.25 4.5C13.25 4.26562 13.4453 4.07031 13.6797 4.07031C13.9141 4.07031 14.0703 4.26562 14.0703 4.5C14.0703 4.73438 13.9141 4.92969 13.6797 4.92969ZM4.5 13.25C4.73438 13.25 4.92969 13.4453 4.92969 13.6797C4.92969 13.9141 4.73438 14.0703 4.5 14.0703C4.26562 14.0703 4.07031 13.9141 4.07031 13.6797C4.07031 13.4453 4.26562 13.25 4.5 13.25ZM10.3203 19.0703C10.5547 19.0703 10.75 19.2656 10.75 19.5C10.75 19.7344 10.5547 19.9297 10.3203 19.9297C10.0859 19.9297 9.92969 19.7344 9.92969 19.5C9.92969 19.2656 10.0859 19.0703 10.3203 19.0703ZM10.3203 4.92969C10.0859 4.92969 9.92969 4.73438 9.92969 4.5C9.92969 4.26562 10.0859 4.07031 10.3203 4.07031C10.5547 4.07031 10.75 4.26562 10.75 4.5C10.75 4.73438 10.5547 4.92969 10.3203 4.92969ZM10.3203 7.82031C9.89062 7.82031 9.5 7.46875 9.5 7C9.5 6.53125 9.89062 6.17969 10.3203 6.17969C10.7891 6.17969 11.1797 6.53125 11.1797 7C11.1797 7.46875 10.7891 7.82031 10.3203 7.82031ZM10.3203 12.4297C11.0234 12.4297 11.5703 12.9766 11.5703 13.6797C11.5703 14.3438 11.0234 14.9297 10.3203 14.9297C9.65625 14.9297 9.07031 14.3438 9.07031 13.6797C9.07031 12.9766 9.65625 12.4297 10.3203 12.4297ZM17 12.8203C17.4688 12.8203 17.8203 13.2109 17.8203 13.6797C17.8203 14.1094 17.4688 14.5 17 14.5C16.5312 14.5 16.1797 14.1094 16.1797 13.6797C16.1797 13.2109 16.5312 12.8203 17 12.8203ZM17 16.1797C17.4688 16.1797 17.8203 16.5312 17.8203 17C17.8203 17.4688 17.4688 17.8203 17 17.8203C16.5312 17.8203 16.1797 17.4688 16.1797 17C16.1797 16.5312 16.5312 16.1797 17 16.1797ZM17 9.5C17.4688 9.5 17.8203 9.89062 17.8203 10.3203C17.8203 10.7891 17.4688 11.1797 17 11.1797C16.5312 11.1797 16.1797 10.7891 16.1797 10.3203C16.1797 9.89062 16.5312 9.5 17 9.5ZM17 6.17969C17.4688 6.17969 17.8203 6.53125 17.8203 7C17.8203 7.46875 17.4688 7.82031 17 7.82031C16.5312 7.82031 16.1797 7.46875 16.1797 7C16.1797 6.53125 16.5312 6.17969 17 6.17969ZM19.5 13.25C19.7344 13.25 19.9297 13.4453 19.9297 13.6797C19.9297 13.9141 19.7344 14.0703 19.5 14.0703C19.2656 14.0703 19.0703 13.9141 19.0703 13.6797C19.0703 13.4453 19.2656 13.25 19.5 13.25ZM13.6797 16.1797C14.1094 16.1797 14.5 16.5312 14.5 17C14.5 17.4688 14.1094 17.8203 13.6797 17.8203C13.2109 17.8203 12.8203 17.4688 12.8203 17C12.8203 16.5312 13.2109 16.1797 13.6797 16.1797ZM13.6797 19.0703C13.9141 19.0703 14.0703 19.2656 14.0703 19.5C14.0703 19.7344 13.9141 19.9297 13.6797 19.9297C13.4453 19.9297 13.25 19.7344 13.25 19.5C13.25 19.2656 13.4453 19.0703 13.6797 19.0703ZM10.3203 9.07031C11.0234 9.07031 11.5703 9.65625 11.5703 10.3203C11.5703 11.0234 11.0234 11.5703 10.3203 11.5703C9.65625 11.5703 9.07031 11.0234 9.07031 10.3203C9.07031 9.65625 9.65625 9.07031 10.3203 9.07031ZM10.3203 16.1797C10.7891 16.1797 11.1797 16.5312 11.1797 17C11.1797 17.4688 10.7891 17.8203 10.3203 17.8203C9.89062 17.8203 9.5 17.4688 9.5 17C9.5 16.5312 9.89062 16.1797 10.3203 16.1797ZM13.6797 12.4297C14.3438 12.4297 14.9297 12.9766 14.9297 13.6797C14.9297 14.3438 14.3438 14.9297 13.6797 14.9297C12.9766 14.9297 12.4297 14.3438 12.4297 13.6797C12.4297 12.9766 12.9766 12.4297 13.6797 12.4297ZM13.6797 9.07031C14.3438 9.07031 14.9297 9.65625 14.9297 10.3203C14.9297 11.0234 14.3438 11.5703 13.6797 11.5703C12.9766 11.5703 12.4297 11.0234 12.4297 10.3203C12.4297 9.65625 12.9766 9.07031 13.6797 9.07031Z" fill="#0046FE"/>
<g clip-path="url(#clip0_17424_20700)">
<g clip-path="url(#clip1_17424_20700)">
<path fill-rule="evenodd" clip-rule="evenodd" d="M55.0699 7.42928C54.3704 7.42928 53.8431 6.91716 53.8431 6.23821C53.8431 5.56774 54.3704 5.0625 55.0699 5.0625C55.749 5.0625 56.281 5.57886 56.281 6.23821C56.281 6.91716 55.7604 7.42928 55.0699 7.42928ZM54.0269 16.3207H56.0364V8.70588H54.0269V16.3207ZM61.4569 10.2717C60.278 10.2717 59.4229 11.2006 59.4229 12.4801C59.4229 13.7599 60.2849 14.6888 61.4723 14.6888C62.6316 14.6888 63.5058 13.7393 63.5058 12.4801C63.5058 11.18 62.6632 10.2717 61.4569 10.2717ZM61.0283 16.5827C58.9756 16.5827 57.3676 14.7741 57.3676 12.4648C57.3676 10.1642 58.9217 8.36225 60.9057 8.36225C61.8472 8.36225 62.5922 8.69298 63.1198 9.34465L63.1514 9.38358H63.4753V5.16082H65.5V16.3846H63.4753V15.6376H63.1495L63.1179 15.6792C62.6616 16.279 61.9589 16.5827 61.0283 16.5827ZM50.3726 9.2091V8.38584H52.3822V17.2341C52.3822 18.9217 51.0083 20.2899 49.3138 20.2899H46.3867V18.3624H49.0461C49.7701 18.3624 50.3572 17.7775 50.3572 17.0564V15.4631H50.0344L50.0027 15.5015C49.6536 15.9236 49.1003 16.4082 47.9105 16.4082C45.8578 16.4082 44.25 14.5994 44.25 12.29C44.25 9.98999 45.8108 8.1875 47.8033 8.1875C48.9972 8.1875 49.5747 8.69777 50.0224 9.17573L50.0535 9.2091H50.3726ZM46.3207 12.29C46.3207 13.5788 47.1761 14.5144 48.3545 14.5144C49.514 14.5144 50.3883 13.5582 50.3883 12.29C50.3883 11.0195 49.5329 10.0972 48.3545 10.0972C47.1761 10.0972 46.3207 11.0195 46.3207 12.29ZM39.1139 9.97667C38.011 9.97667 37.3178 10.7501 37.2035 11.5141L37.1854 11.6343H41.0094L40.9939 11.5159C40.8756 10.6241 40.0851 9.97667 39.1139 9.97667ZM39.175 16.5625C36.8145 16.5625 35.1013 14.8368 35.1013 12.4594C35.1013 10.112 36.8262 8.3418 39.1139 8.3418C41.4223 8.3418 43.0346 10.0286 43.0346 12.4443V12.9038H37.1859L37.1872 13.0099C37.2027 14.084 37.9894 14.8053 39.1444 14.8053C39.9767 14.8053 40.6334 14.4618 40.9461 13.8631L42.7408 14.2733C42.2255 15.7286 40.9253 16.5625 39.175 16.5625ZM28 12.4974C28 14.8377 29.6783 16.5364 31.9907 16.5364C32.9277 16.5364 33.7152 16.2975 34.5382 15.7626L33.8471 14.3293C33.3353 14.6235 32.9288 14.7389 32.4132 14.7389C31.0689 14.7389 30.084 13.9954 30.084 12.4651C30.084 10.9348 31.0976 10.191 32.3805 10.191C32.8915 10.191 33.2951 10.2826 33.8519 10.5278L34.5055 8.90751C33.656 8.50978 33.0223 8.36123 32.1856 8.36123C29.7604 8.36123 28 10.1007 28 12.4974Z" fill="#0046FE"/>
</g>
<path d="M78.102 9.098C78.102 9.91 77.822 10.5867 77.262 11.128C76.7113 11.66 75.8667 11.926 74.728 11.926H72.852V16H71.578V6.242H74.728C75.8293 6.242 76.6647 6.508 77.234 7.04C77.8127 7.572 78.102 8.258 78.102 9.098ZM74.728 10.876C75.4373 10.876 75.96 10.722 76.296 10.414C76.632 10.106 76.8 9.66733 76.8 9.098C76.8 7.894 76.1093 7.292 74.728 7.292H72.852V10.876H74.728ZM86.4894 8.328V16H85.2154V14.866C84.9728 15.258 84.6321 15.566 84.1934 15.79C83.7641 16.0047 83.2881 16.112 82.7654 16.112C82.1681 16.112 81.6314 15.9907 81.1554 15.748C80.6794 15.496 80.3014 15.1227 80.0214 14.628C79.7508 14.1333 79.6154 13.5313 79.6154 12.822V8.328H80.8754V12.654C80.8754 13.41 81.0668 13.9933 81.4494 14.404C81.8321 14.8053 82.3548 15.006 83.0174 15.006C83.6988 15.006 84.2354 14.796 84.6274 14.376C85.0194 13.956 85.2154 13.3447 85.2154 12.542V8.328H86.4894ZM89.9145 5.64V16H88.6405V5.64H89.9145ZM94.8018 16.126C94.2138 16.126 93.6865 16.028 93.2198 15.832C92.7531 15.6267 92.3845 15.3467 92.1138 14.992C91.8431 14.628 91.6938 14.2127 91.6658 13.746H92.9818C93.0191 14.1287 93.1965 14.4413 93.5138 14.684C93.8405 14.9267 94.2651 15.048 94.7878 15.048C95.2731 15.048 95.6558 14.9407 95.9358 14.726C96.2158 14.5113 96.3558 14.2407 96.3558 13.914C96.3558 13.578 96.2065 13.3307 95.9078 13.172C95.6091 13.004 95.1471 12.8407 94.5218 12.682C93.9525 12.5327 93.4858 12.3833 93.1218 12.234C92.7671 12.0753 92.4591 11.8467 92.1978 11.548C91.9458 11.24 91.8198 10.8387 91.8198 10.344C91.8198 9.952 91.9365 9.59267 92.1698 9.266C92.4031 8.93933 92.7345 8.68267 93.1638 8.496C93.5931 8.3 94.0831 8.202 94.6338 8.202C95.4831 8.202 96.1691 8.41667 96.6918 8.846C97.2145 9.27533 97.4945 9.86333 97.5318 10.61H96.2578C96.2298 10.2087 96.0665 9.88667 95.7678 9.644C95.4785 9.40133 95.0865 9.28 94.5918 9.28C94.1345 9.28 93.7705 9.378 93.4998 9.574C93.2291 9.77 93.0938 10.0267 93.0938 10.344C93.0938 10.596 93.1731 10.806 93.3318 10.974C93.4998 11.1327 93.7051 11.2633 93.9478 11.366C94.1998 11.4593 94.5451 11.5667 94.9838 11.688C95.5345 11.8373 95.9825 11.9867 96.3278 12.136C96.6731 12.276 96.9671 12.4907 97.2098 12.78C97.4618 13.0693 97.5925 13.4473 97.6018 13.914C97.6018 14.334 97.4851 14.712 97.2518 15.048C97.0185 15.384 96.6871 15.65 96.2578 15.846C95.8378 16.0327 95.3525 16.126 94.8018 16.126ZM106.4 11.87C106.4 12.1127 106.386 12.3693 106.358 12.64H100.226C100.273 13.396 100.53 13.9887 100.996 14.418C101.472 14.838 102.046 15.048 102.718 15.048C103.269 15.048 103.726 14.922 104.09 14.67C104.464 14.4087 104.725 14.0633 104.874 13.634H106.246C106.041 14.3713 105.63 14.9733 105.014 15.44C104.398 15.8973 103.633 16.126 102.718 16.126C101.99 16.126 101.337 15.9627 100.758 15.636C100.189 15.3093 99.7409 14.8473 99.4143 14.25C99.0876 13.6433 98.9243 12.9433 98.9243 12.15C98.9243 11.3567 99.0829 10.6613 99.4003 10.064C99.7176 9.46667 100.161 9.00933 100.73 8.692C101.309 8.36533 101.972 8.202 102.718 8.202C103.446 8.202 104.09 8.36067 104.65 8.678C105.21 8.99533 105.64 9.434 105.938 9.994C106.246 10.5447 106.4 11.17 106.4 11.87ZM105.084 11.604C105.084 11.1187 104.977 10.7033 104.762 10.358C104.548 10.0033 104.254 9.73733 103.88 9.56C103.516 9.37333 103.11 9.28 102.662 9.28C102.018 9.28 101.468 9.48533 101.01 9.896C100.562 10.3067 100.306 10.876 100.24 11.604H105.084Z" fill="#002C52" fill-opacity="0.64"/>
</g>
<defs>
<clipPath id="clip0_17424_20700">
<rect width="79.5" height="20" fill="white" transform="translate(28 2)"/>
</clipPath>
<clipPath id="clip1_17424_20700">
<rect width="37.5" height="20" fill="white" transform="translate(28 2)"/>
</clipPath>
</defs>
</svg>
