<svg width="193" height="43" viewBox="0 0 193 43" fill="none" xmlns="http://www.w3.org/2000/svg">
<path d="M12.5093 22.9697C13.3469 22.9697 13.9752 23.6695 13.9752 24.5095C13.9752 25.2793 13.3469 25.9792 12.5093 25.9792C11.6716 25.9792 11.0433 25.2793 11.0433 24.5095C11.0433 23.6695 11.6716 22.9697 12.5093 22.9697ZM12.5093 28.9886C13.3469 28.9886 13.9752 29.6184 13.9752 30.4583C13.9752 31.2983 13.3469 31.928 12.5093 31.928C11.6716 31.928 11.0433 31.2983 11.0433 30.4583C11.0433 29.6184 11.6716 28.9886 12.5093 28.9886ZM12.5093 17.0208C13.3469 17.0208 13.9752 17.7207 13.9752 18.4905C13.9752 19.3305 13.3469 20.0303 12.5093 20.0303C11.6716 20.0303 11.0433 19.3305 11.0433 18.4905C11.0433 17.7207 11.6716 17.0208 12.5093 17.0208ZM8.04167 17.7907C8.46051 17.7907 8.80954 18.0706 8.80954 18.4905C8.80954 18.9105 8.46051 19.2604 8.04167 19.2604C7.62282 19.2604 7.2738 18.9105 7.2738 18.4905C7.2738 18.0706 7.62282 17.7907 8.04167 17.7907ZM12.5093 11.0719C13.3469 11.0719 13.9752 11.7018 13.9752 12.5417C13.9752 13.3815 13.3469 14.0114 12.5093 14.0114C11.6716 14.0114 11.0433 13.3815 11.0433 12.5417C11.0433 11.7018 11.6716 11.0719 12.5093 11.0719ZM34.8472 19.2604C34.4283 19.2604 34.0793 18.9105 34.0793 18.4905C34.0793 18.0706 34.4283 17.7907 34.8472 17.7907C35.2661 17.7907 35.6151 18.0706 35.6151 18.4905C35.6151 18.9105 35.2661 19.2604 34.8472 19.2604ZM24.4461 14.0114C23.6084 14.0114 22.9104 13.3815 22.9104 12.5417C22.9104 11.7018 23.6084 11.0719 24.4461 11.0719C25.214 11.0719 25.912 11.7018 25.912 12.5417C25.912 13.3815 25.214 14.0114 24.4461 14.0114ZM24.4461 8.83236C24.0273 8.83236 23.6782 8.48243 23.6782 8.0625C23.6782 7.64257 24.0273 7.29264 24.4461 7.29264C24.865 7.29264 25.1441 7.64257 25.1441 8.0625C25.1441 8.48243 24.865 8.83236 24.4461 8.83236ZM8.04167 23.7396C8.46051 23.7396 8.80954 24.0895 8.80954 24.5095C8.80954 24.9294 8.46051 25.2093 8.04167 25.2093C7.62282 25.2093 7.2738 24.9294 7.2738 24.5095C7.2738 24.0895 7.62282 23.7396 8.04167 23.7396ZM18.4428 34.1676C18.8616 34.1676 19.2106 34.5175 19.2106 34.9375C19.2106 35.3575 18.8616 35.7074 18.4428 35.7074C18.0239 35.7074 17.7447 35.3575 17.7447 34.9375C17.7447 34.5175 18.0239 34.1676 18.4428 34.1676ZM18.4428 8.83236C18.0239 8.83236 17.7447 8.48243 17.7447 8.0625C17.7447 7.64257 18.0239 7.29264 18.4428 7.29264C18.8616 7.29264 19.2106 7.64257 19.2106 8.0625C19.2106 8.48243 18.8616 8.83236 18.4428 8.83236ZM18.4428 14.0114C17.6749 14.0114 16.9769 13.3815 16.9769 12.5417C16.9769 11.7018 17.6749 11.0719 18.4428 11.0719C19.2805 11.0719 19.9785 11.7018 19.9785 12.5417C19.9785 13.3815 19.2805 14.0114 18.4428 14.0114ZM18.4428 22.2699C19.6992 22.2699 20.6766 23.2497 20.6766 24.5095C20.6766 25.6993 19.6992 26.749 18.4428 26.749C17.2561 26.749 16.209 25.6993 16.209 24.5095C16.209 23.2497 17.2561 22.2699 18.4428 22.2699ZM30.3796 22.9697C31.2174 22.9697 31.8455 23.6695 31.8455 24.5095C31.8455 25.2793 31.2174 25.9792 30.3796 25.9792C29.5419 25.9792 28.9137 25.2793 28.9137 24.5095C28.9137 23.6695 29.5419 22.9697 30.3796 22.9697ZM30.3796 28.9886C31.2174 28.9886 31.8455 29.6184 31.8455 30.4583C31.8455 31.2983 31.2174 31.928 30.3796 31.928C29.5419 31.928 28.9137 31.2983 28.9137 30.4583C28.9137 29.6184 29.5419 28.9886 30.3796 28.9886ZM30.3796 17.0208C31.2174 17.0208 31.8455 17.7207 31.8455 18.4905C31.8455 19.3305 31.2174 20.0303 30.3796 20.0303C29.5419 20.0303 28.9137 19.3305 28.9137 18.4905C28.9137 17.7207 29.5419 17.0208 30.3796 17.0208ZM30.3796 11.0719C31.2174 11.0719 31.8455 11.7018 31.8455 12.5417C31.8455 13.3815 31.2174 14.0114 30.3796 14.0114C29.5419 14.0114 28.9137 13.3815 28.9137 12.5417C28.9137 11.7018 29.5419 11.0719 30.3796 11.0719ZM34.8472 23.7396C35.2661 23.7396 35.6151 24.0895 35.6151 24.5095C35.6151 24.9294 35.2661 25.2093 34.8472 25.2093C34.4283 25.2093 34.0793 24.9294 34.0793 24.5095C34.0793 24.0895 34.4283 23.7396 34.8472 23.7396ZM24.4461 28.9886C25.214 28.9886 25.912 29.6184 25.912 30.4583C25.912 31.2983 25.214 31.928 24.4461 31.928C23.6084 31.928 22.9104 31.2983 22.9104 30.4583C22.9104 29.6184 23.6084 28.9886 24.4461 28.9886ZM24.4461 34.1676C24.865 34.1676 25.1441 34.5175 25.1441 34.9375C25.1441 35.3575 24.865 35.7074 24.4461 35.7074C24.0273 35.7074 23.6782 35.3575 23.6782 34.9375C23.6782 34.5175 24.0273 34.1676 24.4461 34.1676ZM18.4428 16.251C19.6992 16.251 20.6766 17.3008 20.6766 18.4905C20.6766 19.7503 19.6992 20.7301 18.4428 20.7301C17.2561 20.7301 16.209 19.7503 16.209 18.4905C16.209 17.3008 17.2561 16.251 18.4428 16.251ZM18.4428 28.9886C19.2805 28.9886 19.9785 29.6184 19.9785 30.4583C19.9785 31.2983 19.2805 31.928 18.4428 31.928C17.6749 31.928 16.9769 31.2983 16.9769 30.4583C16.9769 29.6184 17.6749 28.9886 18.4428 28.9886ZM24.4461 22.2699C25.6329 22.2699 26.6799 23.2497 26.6799 24.5095C26.6799 25.6993 25.6329 26.749 24.4461 26.749C23.1897 26.749 22.2123 25.6993 22.2123 24.5095C22.2123 23.2497 23.1897 22.2699 24.4461 22.2699ZM24.4461 16.251C25.6329 16.251 26.6799 17.3008 26.6799 18.4905C26.6799 19.7503 25.6329 20.7301 24.4461 20.7301C23.1897 20.7301 22.2123 19.7503 22.2123 18.4905C22.2123 17.3008 23.1897 16.251 24.4461 16.251Z" fill="#E5EDFF"/>
<mask id="mask0_1_3" style="mask-type:luminance" maskUnits="userSpaceOnUse" x="50" y="3" width="143" height="37">
<path d="M192.106 3.58333H50.037V39.4167H192.106V3.58333Z" fill="white"/>
</mask>
<g mask="url(#mask0_1_3)">
<mask id="mask1_1_3" style="mask-type:luminance" maskUnits="userSpaceOnUse" x="50" y="3" width="68" height="37">
<path d="M117.051 3.58333H50.037V39.4167H117.051V3.58333Z" fill="white"/>
</mask>
<g mask="url(#mask1_1_3)">
<path fill-rule="evenodd" clip-rule="evenodd" d="M98.4119 13.3108C97.1619 13.3108 96.2196 12.3932 96.2196 11.1768C96.2196 9.97553 97.1619 9.07031 98.4119 9.07031C99.6255 9.07031 100.576 9.99546 100.576 11.1768C100.576 12.3932 99.6459 13.3108 98.4119 13.3108ZM96.5481 29.2413H100.139V15.598H96.5481V29.2413ZM109.826 18.4035C107.719 18.4035 106.191 20.0677 106.191 22.3602C106.191 24.6532 107.731 26.3174 109.853 26.3174C111.925 26.3174 113.487 24.6162 113.487 22.3602C113.487 20.0308 111.981 18.4035 109.826 18.4035ZM109.06 29.7107C105.392 29.7107 102.518 26.4703 102.518 22.3328C102.518 18.2109 105.295 14.9824 108.841 14.9824C110.523 14.9824 111.855 15.5749 112.797 16.7425L112.854 16.8122H113.433V9.24647H117.051V29.3557H113.433V28.0174H112.85L112.794 28.0919C111.979 29.1665 110.723 29.7107 109.06 29.7107ZM90.0177 16.4996V15.0246H93.6089V30.8778C93.6089 33.9014 91.1537 36.3527 88.1256 36.3527H82.8947V32.8993H87.6472C88.941 32.8993 89.9902 31.8514 89.9902 30.5594V27.7047H89.4133L89.3567 27.7735C88.7328 28.5298 87.7441 29.398 85.6178 29.398C81.9496 29.398 79.0764 26.1573 79.0764 22.0196C79.0764 17.8987 81.8656 14.6693 85.4263 14.6693C87.5598 14.6693 88.5918 15.5835 89.3919 16.4398L89.4475 16.4996H90.0177ZM82.7768 22.0196C82.7768 24.3287 84.3054 26.005 86.4113 26.005C88.4833 26.005 90.0458 24.2918 90.0458 22.0196C90.0458 19.7433 88.5171 18.0908 86.4113 18.0908C84.3054 18.0908 82.7768 19.7433 82.7768 22.0196ZM69.898 17.8749C67.9271 17.8749 66.6883 19.2606 66.484 20.6294L66.4517 20.8448H73.2853L73.2576 20.6327C73.0462 19.0348 71.6336 17.8749 69.898 17.8749ZM70.0072 29.6745C65.7889 29.6745 62.7273 26.5826 62.7273 22.3231C62.7273 18.1173 65.8098 14.9457 69.898 14.9457C74.0232 14.9457 76.9044 17.9679 76.9044 22.296V23.1193H66.4526L66.4549 23.3094C66.4826 25.2338 67.8885 26.5262 69.9525 26.5262C71.4398 26.5262 72.6134 25.9107 73.1722 24.8381L76.3794 25.573C75.4585 28.1804 73.135 29.6745 70.0072 29.6745ZM50.037 22.3912C50.037 26.5842 53.0362 29.6277 57.1686 29.6277C58.843 29.6277 60.2503 29.1997 61.721 28.2413L60.486 25.6733C59.5714 26.2004 58.845 26.4072 57.9236 26.4072C55.5213 26.4072 53.7612 25.0751 53.7612 22.3333C53.7612 19.5915 55.5726 18.2589 57.8652 18.2589C58.7783 18.2589 59.4996 18.423 60.4946 18.8623L61.6626 15.9593C60.1445 15.2467 59.0121 14.9805 57.5169 14.9805C53.1829 14.9805 50.037 18.0971 50.037 22.3912Z" fill="#E5EDFF"/>
</g>
<path d="M139.571 16.3006C139.571 17.7554 139.071 18.9678 138.07 19.9377C137.086 20.8908 135.577 21.3674 133.542 21.3674H130.189V28.6667H127.913V11.1836H133.542C135.51 11.1836 137.003 11.6602 138.02 12.6133C139.054 13.5665 139.571 14.7956 139.571 16.3006ZM133.542 19.4862C134.809 19.4862 135.743 19.2102 136.344 18.6584C136.944 18.1066 137.244 17.3206 137.244 16.3006C137.244 14.1434 136.01 13.0648 133.542 13.0648H130.189V19.4862H133.542ZM154.56 14.921V28.6667H152.283V26.6349C151.85 27.3372 151.241 27.8891 150.457 28.2904C149.69 28.6751 148.839 28.8673 147.905 28.8673C146.837 28.8673 145.878 28.65 145.028 28.2152C144.177 27.7637 143.502 27.0948 143.001 26.2085C142.518 25.3222 142.276 24.2436 142.276 22.9727V14.921H144.527V22.6718C144.527 24.0262 144.869 25.0713 145.553 25.8072C146.237 26.5262 147.171 26.8857 148.355 26.8857C149.573 26.8857 150.532 26.5095 151.232 25.757C151.933 25.0045 152.283 23.9093 152.283 22.4711V14.921H154.56ZM160.681 10.105V28.6667H158.404V10.105H160.681ZM169.414 28.8924C168.364 28.8924 167.421 28.7168 166.587 28.3657C165.753 27.9978 165.095 27.4962 164.611 26.8607C164.127 26.2085 163.86 25.4644 163.81 24.6283H166.162C166.229 25.3139 166.546 25.874 167.113 26.3088C167.696 26.7437 168.455 26.961 169.389 26.961C170.257 26.961 170.94 26.7688 171.441 26.3841C171.941 25.9994 172.191 25.5146 172.191 24.9292C172.191 24.3272 171.925 23.8842 171.391 23.5998C170.857 23.2988 170.031 23.0063 168.914 22.7219C167.897 22.4544 167.063 22.1867 166.412 21.9192C165.778 21.6349 165.228 21.2253 164.761 20.6902C164.311 20.1383 164.085 19.4193 164.085 18.533C164.085 17.8307 164.294 17.1869 164.711 16.6016C165.128 16.0163 165.72 15.5565 166.487 15.222C167.254 14.8708 168.13 14.6952 169.114 14.6952C170.632 14.6952 171.858 15.0799 172.792 15.8491C173.726 16.6183 174.226 17.6718 174.293 19.0096H172.016C171.966 18.2906 171.674 17.7136 171.141 17.2788C170.624 16.844 169.923 16.6267 169.039 16.6267C168.222 16.6267 167.571 16.8023 167.088 17.1534C166.604 17.5046 166.362 17.9645 166.362 18.533C166.362 18.9845 166.504 19.3607 166.787 19.6617C167.088 19.9461 167.454 20.1801 167.888 20.3641C168.339 20.5312 168.956 20.7237 169.74 20.941C170.724 21.2085 171.524 21.4762 172.141 21.7437C172.758 21.9945 173.284 22.3792 173.718 22.8975C174.168 23.4158 174.401 24.0931 174.418 24.9292C174.418 25.6817 174.209 26.359 173.793 26.961C173.376 27.563 172.783 28.0396 172.016 28.3907C171.266 28.7253 170.398 28.8924 169.414 28.8924ZM190.141 21.2671C190.141 21.7019 190.116 22.1617 190.066 22.6467H179.108C179.192 24.0012 179.651 25.0631 180.484 25.8322C181.334 26.5847 182.36 26.961 183.561 26.961C184.546 26.961 185.362 26.7353 186.013 26.2838C186.681 25.8156 187.147 25.1967 187.414 24.4276H189.866C189.499 25.7486 188.765 26.8272 187.664 27.6633C186.563 28.4827 185.196 28.8924 183.561 28.8924C182.26 28.8924 181.093 28.5998 180.058 28.0145C179.041 27.4292 178.241 26.6014 177.657 25.5313C177.073 24.4442 176.781 23.1901 176.781 21.7687C176.781 20.3474 177.065 19.1015 177.632 18.0313C178.199 16.9611 178.991 16.1417 180.008 15.5732C181.043 14.9879 182.228 14.6952 183.561 14.6952C184.862 14.6952 186.013 14.9795 187.013 15.5481C188.014 16.1166 188.783 16.9026 189.315 17.9059C189.866 18.8926 190.141 20.0129 190.141 21.2671ZM187.789 20.7905C187.789 19.921 187.598 19.1767 187.214 18.5581C186.831 17.9226 186.306 17.446 185.637 17.1283C184.987 16.7939 184.261 16.6267 183.461 16.6267C182.31 16.6267 181.327 16.9945 180.509 17.7303C179.708 18.4662 179.251 19.4862 179.133 20.7905H187.789Z" fill="#FF5C35" fill-opacity="0.64"/>
</g>
</svg>
